<?xml version="1.0" encoding="iso-8859-1"?>
<!-- Generator: Adobe Illustrator 21.0.0, SVG Export Plug-In . SVG Version: 6.00 Build 0)  -->
<svg version="1.1" id="Capa_1" xmlns="http://www.w3.org/2000/svg" xmlns:xlink="http://www.w3.org/1999/xlink" x="0px" y="0px"
	 viewBox="0 0 512 512" style="enable-background:new 0 0 512 512;" xml:space="preserve">
<g id="XMLID_796_">
	<path id="XMLID_798_" d="M343.319,465.872c-4.143,0-7.5,3.358-7.5,7.5V504.5c0,4.142,3.357,7.5,7.5,7.5s7.5-3.358,7.5-7.5v-31.128
		C350.819,469.23,347.462,465.872,343.319,465.872z"/>
	<path id="XMLID_810_" d="M165.566,184.95c-4.14,0.113-7.405,3.562-7.292,7.702l0.128,4.682c0.111,4.071,3.446,7.295,7.493,7.295
		c0.069,0,0.139-0.001,0.209-0.003c4.14-0.113,7.405-3.562,7.292-7.702l-0.128-4.682
		C173.155,188.102,169.707,184.828,165.566,184.95z"/>
	<path id="XMLID_811_" d="M252.493,204.629c0.069,0,0.139-0.001,0.209-0.003c4.14-0.113,7.405-3.562,7.292-7.702l-0.128-4.682
		c-0.113-4.141-3.563-7.414-7.702-7.292c-4.14,0.113-7.405,3.562-7.292,7.702l0.128,4.682
		C245.111,201.405,248.446,204.629,252.493,204.629z"/>
	<path id="XMLID_812_" d="M241.531,229.563c2.429-3.355,1.679-8.044-1.676-10.474c-3.356-2.43-8.044-1.678-10.474,1.676
		c-4.696,6.485-12.265,10.356-20.247,10.356s-15.551-3.872-20.247-10.356c-2.429-3.354-7.118-4.105-10.474-1.676
		c-3.355,2.43-4.105,7.119-1.676,10.474c7.508,10.368,19.619,16.559,32.396,16.559S234.022,239.932,241.531,229.563z"/>
	<path id="XMLID_813_" d="M124.292,396.533c-4.142,0-7.5,3.358-7.5,7.5V504.5c0,4.142,3.358,7.5,7.5,7.5s7.5-3.358,7.5-7.5V404.033
		C131.792,399.891,128.434,396.533,124.292,396.533z"/>
	<path id="XMLID_814_" d="M290.892,396.533c-4.143,0-7.5,3.358-7.5,7.5V504.5c0,4.142,3.357,7.5,7.5,7.5s7.5-3.358,7.5-7.5V404.033
		C298.392,399.891,295.035,396.533,290.892,396.533z"/>
	<path id="XMLID_815_" d="M431.576,278.289c-2.399-3.376-7.079-4.169-10.458-1.771c-3.377,2.399-4.169,7.081-1.771,10.458
		c8.692,12.235,13.287,26.641,13.287,41.659c0,39.726-32.319,72.045-72.045,72.045s-72.045-32.319-72.045-72.045
		s32.319-72.044,72.045-72.044c13.075,0,25.884,3.544,37.042,10.248c3.549,2.133,8.158,0.985,10.291-2.566
		c2.134-3.551,0.984-8.158-2.566-10.292c-13.49-8.106-28.971-12.391-44.767-12.391c-42.55,0-78.062,30.69-85.575,71.096h-36.443
		V300.09c28.781-10.381,50.836-35.537,56.343-66.836c4.305,1.715,8.921,2.603,13.69,2.603c20.422,0,37.037-16.615,37.037-37.037
		c0-9.766-3.807-18.656-10.006-25.28l3.028-14.764c8.188-39.946-2.22-80.732-28.556-111.901c-2.673-3.164-7.405-3.561-10.569-0.889
		c-3.164,2.673-3.562,7.406-0.888,10.569c23.35,27.635,32.577,63.795,25.318,99.208l-1.767,8.618
		c-4.213-1.67-8.798-2.597-13.598-2.597c-1.58,0-3.142,0.109-4.685,0.303l1.877-15.026c0.911,0.022,1.833,0.04,2.768,0.055
		c0.076,0.001,0.151,0.002,0.227,0.002c3.57,0,6.929-1.374,9.479-3.883c2.6-2.558,4.031-5.974,4.031-9.618v-15.111
		c0-4.142-3.357-7.5-7.5-7.5s-7.5,3.358-7.5,7.5v13.584c-42.097-0.864-57.705-8.931-58.638-9.436
		c-2.298-1.467-5.129-1.518-7.529-0.215c-2.416,1.313-3.833,3.896-3.833,6.646v2.944c-37-1.357-54.909-12.544-55.052-12.635
		c-2.304-1.512-5.252-1.639-7.678-0.329c-2.425,1.309-3.937,3.843-3.937,6.6v6.375c-30.119-1.018-48.612-7.963-58.867-13.663
		c-3.62-2.011-8.186-0.708-10.199,2.912c-2.012,3.621-0.708,8.187,2.912,10.199c1.904,1.058,4.052,2.154,6.453,3.251l3.416,27.347
		c-1.545-0.195-3.107-0.304-4.685-0.304c-4.8,0-9.385,0.928-13.598,2.597l-1.767-8.618c-7.103-34.647,1.646-70.235,24.003-97.641
		C140.659,30.718,173.766,15,209.134,15c24.089,0,47.185,7.211,66.79,20.854c3.399,2.365,8.074,1.527,10.44-1.873
		s1.527-8.074-1.872-10.44C262.359,8.14,236.302,0,209.134,0C169.24,0,131.898,17.729,106.68,48.641s-35.086,71.055-27.075,110.135
		l3.027,14.764c-6.199,6.624-10.005,15.514-10.005,25.28c0,20.422,16.615,37.037,37.037,37.037c4.766,0,9.382-0.891,13.69-2.607
		c5.505,31.301,27.561,56.458,56.343,66.839v12.598h-43.47c-39.624,0-71.861,32.237-71.861,71.861V504.5c0,4.142,3.358,7.5,7.5,7.5
		s7.5-3.358,7.5-7.5V384.548c0-31.353,25.508-56.861,56.861-56.861h17.521V504.5c0,4.142,3.358,7.5,7.5,7.5s7.5-3.358,7.5-7.5
		V327.688h10.95v6.801c0,16.232,13.206,29.438,29.438,29.438s29.438-13.206,29.438-29.438v-6.801h10.95V504.5
		c0,4.142,3.358,7.5,7.5,7.5c4.143,0,7.5-3.358,7.5-7.5V327.688h9.035c-0.003,0.316-0.012,0.631-0.012,0.948
		c0,39.394,26.307,72.753,62.274,83.449v27.737c0,4.142,3.357,7.5,7.5,7.5s7.5-3.358,7.5-7.5v-24.692
		c3.208,0.36,6.467,0.552,9.771,0.552c47.997,0,87.045-39.048,87.045-87.045C447.635,310.486,442.082,293.077,431.576,278.289z
		 M308.604,176.784c12.151,0,22.037,9.886,22.037,22.037c0,12.151-9.886,22.037-22.037,22.037c-4.171,0-8.136-1.15-11.611-3.319
		l4.962-39.73C304.09,177.132,306.316,176.784,308.604,176.784z M87.627,198.82c0-12.151,9.886-22.037,22.037-22.037
		c2.284,0,4.511,0.349,6.649,1.025l4.963,39.732c-3.477,2.168-7.445,3.316-11.612,3.316
		C97.512,220.857,87.627,210.972,87.627,198.82z M137.584,227.079l-10.805-86.505c11.544,3.369,26.345,6.009,44.958,6.508
		c3.699,0.102,7.178-1.263,9.819-3.833c1.716-1.67,2.929-3.711,3.564-5.947c10.328,4.056,27.943,9.041,53.265,9.773
		c3.685,0.111,7.179-1.25,9.824-3.82c1.102-1.071,1.997-2.293,2.667-3.623c7.753,2.471,20.472,5.362,39.89,6.734l-10.081,80.713
		c-4.498,36.012-35.258,63.169-71.55,63.169C172.842,290.248,142.082,263.091,137.584,227.079z M209.134,348.926
		c-7.961,0-14.438-6.477-14.438-14.438v-30.466c4.707,0.792,9.527,1.225,14.438,1.225s9.73-0.433,14.438-1.225v30.466
		C223.572,342.449,217.095,348.926,209.134,348.926z"/>
	<path id="XMLID_821_" d="M355.666,379.385h9.848c9.649,0,17.5-7.851,17.5-17.5V351.06h10.825c9.649,0,17.5-7.851,17.5-17.5v-9.847
		c0-9.649-7.851-17.5-17.5-17.5h-10.825v-10.826c0-9.649-7.851-17.5-17.5-17.5h-9.848c-9.649,0-17.5,7.851-17.5,17.5v10.826h-10.825
		c-9.649,0-17.5,7.851-17.5,17.5v9.847c0,9.649,7.851,17.5,17.5,17.5h10.825v10.826
		C338.166,371.535,346.016,379.385,355.666,379.385z M327.341,336.06c-1.379,0-2.5-1.122-2.5-2.5v-9.847c0-1.378,1.121-2.5,2.5-2.5
		h18.325c4.143,0,7.5-3.358,7.5-7.5v-18.326c0-1.378,1.121-2.5,2.5-2.5h9.848c1.379,0,2.5,1.122,2.5,2.5v18.326
		c0,4.142,3.357,7.5,7.5,7.5h18.325c1.379,0,2.5,1.122,2.5,2.5v9.847c0,1.378-1.121,2.5-2.5,2.5h-18.325c-4.143,0-7.5,3.358-7.5,7.5
		v18.326c0,1.378-1.121,2.5-2.5,2.5h-9.848c-1.379,0-2.5-1.122-2.5-2.5V343.56c0-4.142-3.357-7.5-7.5-7.5H327.341z"/>
</g>
<g>
</g>
<g>
</g>
<g>
</g>
<g>
</g>
<g>
</g>
<g>
</g>
<g>
</g>
<g>
</g>
<g>
</g>
<g>
</g>
<g>
</g>
<g>
</g>
<g>
</g>
<g>
</g>
<g>
</g>
</svg>
